<?xml version="1.0" encoding="UTF-8"?>
<svg xmlns="http://www.w3.org/2000/svg" viewBox="0 0 512 512" width="512" height="512">
  <defs>
    <radialGradient id="bg" cx="50%" cy="45%" r="65%">
      <stop offset="0%" stop-color="#14141c"/>
      <stop offset="100%" stop-color="#0a0a0d"/>
    </radialGradient>
    <linearGradient id="gold" x1="0%" y1="0%" x2="100%" y2="100%">
      <stop offset="0%" stop-color="#e4cf9a"/>
      <stop offset="45%" stop-color="#c9a86c"/>
      <stop offset="100%" stop-color="#a07d3e"/>
    </linearGradient>
    <linearGradient id="goldSoft" x1="0%" y1="100%" x2="100%" y2="0%">
      <stop offset="0%" stop-color="#a07d3e" stop-opacity="0.6"/>
      <stop offset="100%" stop-color="#e4cf9a" stop-opacity="0.9"/>
    </linearGradient>
    <filter id="glow" x="-20%" y="-20%" width="140%" height="140%">
      <feGaussianBlur stdDeviation="3" result="blur"/>
      <feMerge>
        <feMergeNode in="blur"/>
        <feMergeNode in="SourceGraphic"/>
      </feMerge>
    </filter>
  </defs>
  <rect width="512" height="512" fill="url(#bg)"/>
  <circle cx="256" cy="256" r="200" fill="none" stroke="#c9a86c" stroke-opacity="0.08" stroke-width="1"/>
  <circle cx="256" cy="256" r="160" fill="none" stroke="#c9a86c" stroke-opacity="0.05" stroke-width="0.5"/>
  
    <g transform="translate(256,255) scale(0.95)" filter="url(#glow)">
      <path fill="url(#gold)" d="M-45 -90 L-45 30 Q-45 45 -30 48 L30 48 Q45 45 45 30 L45 -90 Q45 -100 35 -102 L-35 -102 Q-45 -100 -45 -90 Z"/>
      <path fill="url(#goldSoft)" d="M-35 -102 L35 -102 L32 -60 L-32 -60 Z" opacity="0.4"/>
      <path fill="none" stroke="#e4cf9a" stroke-width="1.5" opacity="0.3" d="M-32 -60 L32 -60"/>
      <path fill="url(#gold)" d="M30 48 L35 62 Q38 70 25 72 L-25 72 Q-38 70 -35 62 L-30 48 Z"/>
      <ellipse cx="0" cy="-75" rx="38" ry="8" fill="none" stroke="#e4cf9a" stroke-width="1" opacity="0.25"/>
    </g>
  <circle cx="120" cy="100" r="1.5" fill="#e4cf9a" opacity="0.4"/>
  <circle cx="390" cy="130" r="1" fill="#c9a86c" opacity="0.35"/>
  <circle cx="420" cy="380" r="1.5" fill="#e4cf9a" opacity="0.3"/>
  <circle cx="95" cy="350" r="1" fill="#c9a86c" opacity="0.25"/>
</svg>