<?xml version="1.0" encoding="UTF-8"?>
<svg xmlns="http://www.w3.org/2000/svg" viewBox="0 0 512 512" width="512" height="512">
  <defs>
    <radialGradient id="bg" cx="50%" cy="45%" r="65%">
      <stop offset="0%" stop-color="#14141c"/>
      <stop offset="100%" stop-color="#0a0a0d"/>
    </radialGradient>
    <linearGradient id="gold" x1="0%" y1="0%" x2="100%" y2="100%">
      <stop offset="0%" stop-color="#e4cf9a"/>
      <stop offset="45%" stop-color="#c9a86c"/>
      <stop offset="100%" stop-color="#a07d3e"/>
    </linearGradient>
    <linearGradient id="goldSoft" x1="0%" y1="100%" x2="100%" y2="0%">
      <stop offset="0%" stop-color="#a07d3e" stop-opacity="0.6"/>
      <stop offset="100%" stop-color="#e4cf9a" stop-opacity="0.9"/>
    </linearGradient>
    <filter id="glow" x="-20%" y="-20%" width="140%" height="140%">
      <feGaussianBlur stdDeviation="3" result="blur"/>
      <feMerge>
        <feMergeNode in="blur"/>
        <feMergeNode in="SourceGraphic"/>
      </feMerge>
    </filter>
  </defs>
  <rect width="512" height="512" fill="url(#bg)"/>
  <circle cx="256" cy="256" r="200" fill="none" stroke="#c9a86c" stroke-opacity="0.08" stroke-width="1"/>
  <circle cx="256" cy="256" r="160" fill="none" stroke="#c9a86c" stroke-opacity="0.05" stroke-width="0.5"/>
  
    <g transform="translate(256,275) scale(1.05)" filter="url(#glow)">
      <path fill="url(#gold)" d="M-68 15 Q-70 5 -58 2 L58 2 Q70 5 70 18 L74 35 Q76 45 60 47 L-60 47 Q-74 45 -68 15 Z"/>
      <path fill="url(#goldSoft)" d="M-58 2 L58 2 L52 -25 L-52 -25 Z" opacity="0.4"/>
      <path fill="none" stroke="#e4cf9a" stroke-width="2" d="M0 -25 L0 15"/>
      <circle cx="-25" cy="5" r="5" fill="none" stroke="#e4cf9a" stroke-width="1.5" opacity="0.5"/>
      <circle cx="25" cy="5" r="5" fill="none" stroke="#e4cf9a" stroke-width="1.5" opacity="0.5"/>
      <path fill="none" stroke="#e4cf9a" stroke-width="1.5" opacity="0.4" d="M-25 5 L-15 -15 M25 5 L15 -15"/>
    </g>
  <circle cx="120" cy="100" r="1.5" fill="#e4cf9a" opacity="0.4"/>
  <circle cx="390" cy="130" r="1" fill="#c9a86c" opacity="0.35"/>
  <circle cx="420" cy="380" r="1.5" fill="#e4cf9a" opacity="0.3"/>
  <circle cx="95" cy="350" r="1" fill="#c9a86c" opacity="0.25"/>
</svg>